<svg width="32" height="32" viewBox="0 0 32 32" fill="none" xmlns="http://www.w3.org/2000/svg">
<path d="M8.33236 2.66602C6.68736 2.66602 5.33236 4.02102 5.33236 5.66602V14.6999C4.57251 14.8546 3.99902 15.528 3.99902 16.3327V23.666C3.99902 24.4707 4.57251 25.1441 5.33236 25.2988V26.3327C5.33236 27.9867 6.67836 29.3327 8.33236 29.3327H23.3662L22.0159 27.9824C21.8246 27.7911 21.6788 27.5693 21.5654 27.3327H8.33236C7.78102 27.3327 7.33236 26.884 7.33236 26.3327V25.3327H21.5654C21.6788 25.096 21.8253 24.8743 22.0159 24.6829C22.4566 24.2423 23.0424 23.9993 23.6657 23.9993C24.0177 23.9993 24.357 24.0766 24.6657 24.2233V23.3327H5.99902V16.666H25.999V18.2337C26.303 18.0884 26.6397 17.9993 26.999 17.9993C27.3584 17.9993 27.695 18.0884 27.999 18.2337V16.3327C27.999 15.528 27.4255 14.8546 26.6657 14.6999V12.3327C26.6656 12.0675 26.5603 11.8132 26.3727 11.6257L26.3623 11.6152L17.7061 2.95898C17.5185 2.77145 17.2642 2.66607 16.999 2.66602H8.33236ZM8.33236 4.66602H15.999V10.3327C15.999 11.9777 17.354 13.3327 18.999 13.3327H24.6657V14.666H7.33236V5.66602C7.33236 5.10168 7.76802 4.66602 8.33236 4.66602ZM17.999 6.08008L23.2516 11.3327H18.999C18.4347 11.3327 17.999 10.897 17.999 10.3327V6.08008ZM11.5277 17.3327C10.3177 17.3327 9.33236 18.5287 9.33236 19.9993C9.33236 21.47 10.3177 22.666 11.5277 22.666C12.4917 22.666 13.0682 22.0123 13.2568 21.6257C13.4188 21.295 13.2822 20.8957 12.9508 20.7337C12.6202 20.5724 12.2216 20.709 12.0602 21.0397C12.0589 21.0424 11.9003 21.3327 11.5277 21.3327C11.069 21.3327 10.6657 20.7093 10.6657 19.9993C10.6657 19.2893 11.069 18.666 11.5277 18.666C11.877 18.666 12.0341 18.9154 12.0654 18.9694C12.2301 19.2921 12.6248 19.425 12.9521 19.265C13.2828 19.1036 13.4201 18.7037 13.2581 18.373C13.0695 17.9864 12.4923 17.3327 11.5277 17.3327ZM15.749 17.3327C14.8304 17.3327 14.0824 18.0807 14.0824 18.9993C14.0824 19.918 14.8304 20.666 15.749 20.666H16.3324C16.5164 20.666 16.6657 20.8153 16.6657 20.9993C16.6657 21.1833 16.5164 21.3327 16.3324 21.3327H15.6045C15.3765 21.3327 15.189 21.1633 15.137 21.1113C14.8764 20.8507 14.455 20.8507 14.1943 21.1113C13.9337 21.372 13.9337 21.7934 14.1943 22.054C14.3783 22.238 14.8838 22.666 15.6045 22.666H16.3324C17.251 22.666 17.999 21.918 17.999 20.9993C17.999 20.0807 17.251 19.3327 16.3324 19.3327H15.749C15.565 19.3327 15.4157 19.1833 15.4157 18.9993C15.4157 18.8153 15.565 18.666 15.749 18.666H16.3324C16.535 18.666 16.6943 18.804 16.6943 18.804C16.955 19.064 17.3764 19.0647 17.637 18.804C17.8977 18.5434 17.8977 18.122 17.637 17.8613C17.583 17.8073 17.0864 17.3327 16.3324 17.3327H15.749ZM19.3363 17.3327C19.2496 17.3322 19.161 17.348 19.0758 17.3835C18.7358 17.5255 18.5751 17.9159 18.7165 18.2559L20.3831 22.2559C20.4865 22.5039 20.7297 22.666 20.999 22.666C21.2684 22.666 21.5109 22.5039 21.6149 22.2559L23.2816 18.2559C23.4229 17.9159 23.2622 17.5248 22.9222 17.3835C22.5809 17.2415 22.1905 17.4035 22.0498 17.7428L20.999 20.2663L19.9482 17.7428C19.8422 17.4883 19.5963 17.3341 19.3363 17.3327ZM26.999 19.3327C26.4464 19.3327 25.999 19.78 25.999 20.3327V27.252L24.3727 25.6257C23.9821 25.235 23.3493 25.235 22.9587 25.6257C22.568 26.0157 22.568 26.6497 22.9587 27.0397L26.292 30.373C26.4867 30.5684 26.743 30.666 26.999 30.666C27.255 30.666 27.5107 30.5684 27.7061 30.373L31.0394 27.0397C31.4294 26.649 31.4294 26.0163 31.0394 25.6257C30.6487 25.235 30.016 25.235 29.6253 25.6257L27.999 27.252V20.3327C27.999 19.78 27.5517 19.3327 26.999 19.3327Z" fill="#312E2E"/>
</svg>
